<svg xmlns="http://www.w3.org/2000/svg" width="200" height="200" viewBox="0 0 200 200">
<g>
<path d="M 54.03,98.95 L 54.02,102.36 L 54.04,109.06 L 54.05,110.69 L 54.08,113.81 L 54.10,115.33 L 54.14,118.16 L 54.16,119.53 L 54.22,121.97 L 54.25,123.14 L 54.32,125.11 L 54.36,126.02 L 54.45,127.41 L 54.45,127.41 L 54.36,126.02 L 54.32,125.11 L 54.25,123.14 L 54.22,121.97 L 54.16,119.53 L 54.14,118.16 L 54.10,115.33 L 54.08,113.81 L 54.05,110.69 L 54.04,109.06 L 54.02,102.36 L 54.03,98.95 L 54.05,95.37 M 147.06,73.47 L 147.19,74.40 L 147.43,76.41 L 147.52,77.57 L 147.69,79.97 L 147.74,81.24 L 147.92,85.84 L 148.05,88.31 L 148.12,89.28 L 148.29,91.06 L 148.41,91.73 L 148.68,92.93 L 148.86,93.35 L 149.27,94.09 L 149.55,94.32 L 150.16,94.69 L 150.55,94.79 L 151.40,94.92 L 151.93,94.93 L 152.13,94.93 L 147.50,95.00 L 147.50,81.82 L 147.42,78.77 L 147.37,77.32 L 147.20,74.94 L 147.11,73.84 L 147.00,73.17 M 181.11,78.18 L 179.87,80.51 L 179.19,81.66 L 177.44,83.83 L 176.52,84.89 L 174.35,86.85 L 173.22,87.80 L 170.70,89.50 L 169.41,90.32 L 168.20,90.92 L 169.57,90.21 L 170.84,89.39 L 173.32,87.67 L 174.44,86.72 L 176.58,84.75 L 177.50,83.70 L 179.23,81.55 L 179.90,80.43 L 181.12,78.15 M 129.92,69.38 L 135.98,69.68 L 139.62,69.93 L 141.11,70.07 L 142.53,70.22 L 143.14,70.29 L 144.29,70.44 L 144.74,70.52 L 145.57,70.67 L 145.84,70.74 L 146.29,70.89 L 146.32,70.92 L 145.59,70.73 L 145.14,70.64 L 143.75,70.44 L 142.98,70.35 L 141.02,70.16 L 139.97,70.06 L 137.51,69.87 L 136.22,69.78 L 133.34,69.60 L 131.86,69.51 L 128.81,69.34 M 100.34,67.91 L 104.68,67.92 L 106.49,67.95 L 108.23,67.97 L 108.98,67.99 L 110.39,68.03 L 110.96,68.06 L 111.98,68.11 L 112.33,68.14 L 112.90,68.21 L 113.00,68.25 L 113.62,68.38 L 114.32,68.47 L 114.80,68.52 L 115.84,68.62 L 116.48,68.67 L 117.82,68.77 L 118.59,68.82 L 121.69,69.02 L 118.08,68.87 L 114.39,68.73 L 106.80,68.51 L 103.01,68.41 L 95.72,68.29 L 93.94,68.27 L 90.56,68.24 L 88.90,68.24 L 85.80,68.25 L 84.30,68.26 L 81.58,68.30 L 78.00,68.42 L 75.93,68.51 L 72.30,68.70 L 70.56,68.80 L 67.53,68.99 L 66.10,69.09 L 63.64,69.29 L 62.49,69.40 L 63.02,69.33 L 64.91,69.10 L 65.99,68.98 L 68.23,68.74 L 69.50,68.61 L 71.09,68.48 L 72.45,68.41 L 73.26,68.37 L 74.96,68.30 L 75.91,68.27 L 77.88,68.20 L 78.95,68.18 L 83.42,68.07 L 85.84,68.03 L 90.76,67.96 L 93.21,67.94 L 98.08,67.91 Z" fill="rgba(225,125,22,1)"/>
<path d="M 161.04,93.84 L 162.48,93.37 L 165.35,92.32 L 166.73,91.66 L 169.45,90.25 L 170.73,89.44 L 173.14,87.79 L 170.84,89.39 L 169.57,90.21 L 166.84,91.63 L 165.46,92.29 L 162.58,93.35 L 161.13,93.84 L 158.18,94.48 L 153.77,94.92 L 158.12,94.48 M 173.32,87.67 L 173.21,87.74 L 174.29,86.84 M 174.44,86.72 L 174.34,86.80 L 174.67,86.50 M 156.51,74.19 L 156.93,74.31 L 157.99,74.43 L 158.55,74.47 L 159.82,74.46 L 161.14,74.41 L 164.08,73.95 L 165.05,73.77 L 164.50,73.90 L 161.90,74.39 L 160.35,74.57 L 159.66,74.59 L 158.34,74.59 L 157.77,74.52 L 156.67,74.32 L 156.20,74.15 L 155.32,73.75 L 155.30,73.74 M 32.53,72.28 L 37.20,73.50 L 38.77,73.69 L 41.51,73.69 L 42.43,73.64 L 41.21,73.81 L 40.19,73.81 L 38.11,73.73 L 37.05,73.56 L 34.94,73.15 L 33.92,72.82 L 31.91,72.07 L 30.99,71.57 L 30.68,71.38 M 166.11,73.54 L 165.85,73.60 L 166.79,73.32 M 44.06,73.38 L 43.13,73.55 L 43.10,73.55 L 44.51,73.22 M 169.89,72.28 L 168.70,72.71 L 170.75,71.80 M 46.47,72.45 L 46.46,72.46 L 46.49,72.44 M 47.59,71.60 L 48.90,69.77 L 47.68,71.53 M 179.66,59.47 L 180.06,59.78 L 180.75,60.78 L 181.08,61.34 L 181.62,62.76 L 181.87,63.52 L 182.23,65.25 L 182.39,66.15 L 182.55,68.08 L 182.57,68.41 L 182.25,67.72 L 181.36,66.21 L 180.68,65.42 L 178.36,62.72 L 176.26,66.29 L 176.13,66.47 L 176.62,65.59 L 177.25,63.71 L 177.36,61.29 L 177.25,60.88 L 177.18,60.23 L 177.16,59.94 L 177.27,59.52 L 177.35,59.34 L 177.66,59.12 L 178.36,59.00 L 178.82,59.00 M 22.74,58.36 L 23.57,59.44 L 23.96,59.97 L 24.58,61.61 L 25.00,64.09 L 25.00,64.62 L 25.26,65.67 L 25.42,66.20 L 25.54,66.41 L 25.45,66.27 L 25.27,65.89 L 25.00,65.19 L 25.00,64.93 L 24.49,63.36 L 23.73,62.48 L 23.23,62.18 L 22.17,61.67 L 21.63,61.62 L 20.55,61.66 L 20.09,61.94 L 19.42,62.68 L 19.01,63.44 L 18.82,63.92 L 18.16,66.14 L 17.96,67.48 L 17.87,68.20 L 17.92,67.69 L 18.10,66.34 L 18.65,64.09 L 18.81,63.60 L 19.15,62.84 L 19.72,62.12 L 19.97,61.95 L 20.59,61.10 L 21.39,59.50 L 21.58,59.01 L 21.85,58.39 L 21.98,58.14 L 22.23,58.01 L 22.37,58.01 Z" fill="rgba(220,127,36,1)"/>
<path d="M 152.56,131.46 L 151.21,134.95 L 150.87,135.73 L 150.19,136.99 L 149.21,138.24 L 149.07,138.36 L 148.29,138.57 L 147.81,138.68 L 146.29,138.85 L 145.43,138.94 L 143.05,139.09 L 141.75,139.16 L 138.41,139.28 L 137.51,139.31 L 135.51,139.36 L 134.48,139.39 L 132.21,139.43 L 131.03,139.46 L 128.47,139.50 L 127.15,139.52 L 124.28,139.56 L 122.80,139.57 L 119.62,139.61 L 117.98,139.62 L 114.46,139.65 L 112.66,139.67 L 108.80,139.69 L 102.60,139.73 L 100.09,139.74 L 95.48,139.76 L 93.24,139.77 L 89.13,139.78 L 87.13,139.79 L 83.49,139.79 L 81.73,139.80 L 78.53,139.79 L 76.99,139.79 L 74.20,139.78 L 72.85,139.77 L 70.44,139.75 L 69.27,139.74 L 67.21,139.70 L 66.21,139.68 L 64.46,139.64 L 63.62,139.61 L 63.19,139.60 L 63.57,139.61 L 65.12,139.65 L 66.00,139.67 L 67.82,139.70 L 68.85,139.70 L 70.97,139.72 L 72.15,139.73 L 74.60,139.73 L 75.96,139.73 L 78.76,139.72 L 80.30,139.72 L 83.49,139.70 L 85.23,139.69 L 88.83,139.67 L 90.78,139.65 L 94.81,139.62 L 97.00,139.60 L 103.46,139.54 L 107.49,139.49 L 109.38,139.47 L 113.06,139.41 L 114.77,139.38 L 118.11,139.32 L 119.66,139.29 L 122.69,139.22 L 124.09,139.18 L 126.82,139.10 L 128.07,139.05 L 130.51,138.96 L 131.63,138.91 L 133.81,138.80 L 134.80,138.74 L 138.54,138.50 L 140.07,138.35 L 142.93,138.05 L 144.08,137.87 L 146.20,137.50 L 147.04,137.28 L 148.57,136.83 L 149.16,136.58 L 150.38,135.64 L 151.15,134.58 L 151.53,133.78 L 152.31,131.98 L 152.73,130.74 L 152.97,130.02 M 55.46,138.80 L 55.45,138.80 L 55.45,138.80 M 50.54,135.98 L 51.52,136.82 L 52.12,137.20 L 53.40,137.93 L 54.16,138.30 L 54.93,138.65 L 55.34,138.76 L 54.94,138.65 L 54.16,138.31 L 53.40,137.93 L 52.12,137.20 L 51.52,136.82 L 50.53,135.98 L 50.13,135.58 M 50.08,135.53 L 50.08,135.53 L 49.81,135.12 M 129.88,133.40 L 127.48,133.54 L 122.54,133.83 L 120.00,133.98 L 112.26,134.36 L 107.19,134.54 L 104.88,134.59 L 102.62,134.63 L 101.58,134.64 L 99.79,134.65 L 102.74,134.59 L 103.81,134.56 L 106.14,134.48 L 107.33,134.44 L 109.94,134.34 L 111.28,134.29 L 114.17,134.17 L 115.65,134.10 L 118.84,133.95 L 120.47,133.88 L 123.97,133.70 L 125.76,133.61 L 129.57,133.41 L 131.52,133.31 L 131.62,133.30 M 55.31,130.92 L 56.18,131.46 L 56.46,131.58 L 57.20,131.77 L 57.61,131.86 L 58.67,132.01 L 59.25,132.09 L 60.69,132.24 L 63.35,132.48 L 64.47,132.58 L 67.06,132.75 L 68.39,132.83 L 71.14,132.96 L 72.51,133.01 L 75.10,133.08 L 78.43,133.10 L 80.34,133.07 L 84.25,133.36 L 85.16,133.46 L 86.73,133.70 L 88.50,134.14 L 88.65,134.19 L 87.10,134.12 L 85.09,134.05 L 76.48,133.79 L 72.30,133.73 L 68.51,133.65 L 66.27,133.59 L 65.27,133.55 L 63.38,133.47 L 62.55,133.42 L 60.99,133.31 L 60.33,133.25 L 59.08,133.12 L 58.57,133.05 L 57.62,132.90 L 57.25,132.81 L 56.04,132.43 L 55.80,132.20 L 55.46,131.53 L 55.29,130.88 M 49.02,133.83 L 49.02,133.83 L 48.90,133.47 M 145.66,131.88 L 145.40,132.08 L 145.33,132.12 L 145.52,131.98 L 145.69,131.77 M 145.89,131.21 L 145.79,131.49 L 145.92,130.75 M 47.28,119.21 L 47.31,120.20 L 47.45,123.90 L 47.55,125.42 L 47.77,128.24 L 47.92,129.38 L 48.27,131.47 L 48.27,131.47 L 47.92,129.37 L 47.77,128.24 L 47.55,125.42 L 47.45,123.90 L 47.31,120.20 L 47.28,119.21 L 47.22,117.04 L 47.15,113.49 L 47.22,117.04 M 150.95,117.15 L 150.74,117.18 L 149.64,117.47 L 149.13,117.78 L 148.98,118.03 L 148.73,118.60 L 148.68,119.00 L 148.64,119.90 L 148.67,120.50 L 148.67,123.51 L 148.50,125.22 L 148.34,125.87 L 147.98,127.01 L 147.75,127.29 L 147.25,127.66 L 146.97,127.48 L 146.59,127.47 L 146.37,127.68 L 146.28,127.88 L 146.00,128.91 L 146.00,129.69 L 145.94,130.53 L 146.00,128.24 L 146.00,127.06 L 146.27,124.72 L 146.36,124.17 L 146.57,123.25 L 146.93,122.24 L 147.18,121.76 L 147.75,120.48 L 148.42,118.68 L 148.53,118.34 L 148.87,117.84 L 149.07,117.61 L 149.55,117.32 L 150.06,117.07 M 113.96,112.15 L 115.34,112.24 L 115.99,112.29 L 117.01,112.48 L 117.47,112.59 L 118.13,112.91 L 118.42,113.09 L 118.76,113.55 L 118.90,113.80 L 118.93,114.41 L 118.92,114.74 L 118.68,115.53 L 118.04,116.92 L 117.81,117.36 L 117.24,117.99 L 116.92,118.27 L 115.98,118.62 L 115.45,118.77 L 113.90,118.92 L 110.59,119.00 L 109.51,119.00 L 107.70,118.91 L 106.85,118.85 L 105.50,118.65 L 104.88,118.53 L 103.96,118.19 L 103.55,118.01 L 103.04,117.55 L 102.71,117.15 L 102.52,116.63 L 102.99,116.74 L 103.56,116.85 L 103.97,116.88 L 104.85,116.92 L 105.43,116.92 L 106.68,116.90 L 107.47,116.88 L 109.15,116.83 L 110.17,116.79 L 112.70,116.69 L 114.10,116.62 L 114.67,116.58 L 115.72,116.49 L 116.13,116.43 L 116.89,116.31 L 117.17,116.23 L 118.07,115.87 L 118.26,115.59 L 118.50,114.95 L 118.50,114.50 L 118.28,113.41 L 117.79,112.95 L 117.25,112.81 L 116.65,112.69 L 116.25,112.65 L 115.39,112.58 L 114.84,112.55 L 113.67,112.52 L 112.95,112.51 L 111.42,112.50 L 110.50,112.50 L 107.98,112.51 L 106.60,112.53 L 106.05,112.55 L 105.02,112.61 L 104.62,112.65 L 104.06,112.73 L 104.47,112.63 L 106.29,112.43 L 106.82,112.38 L 108.06,112.31 L 110.28,112.21 L 111.33,112.17 L 113.11,112.15 M 102.54,113.52 L 102.25,114.25 L 102.20,114.62 L 102.18,114.30 L 102.25,113.92 L 102.55,113.50 M 102.89,113.14 L 102.91,113.12 L 103.06,113.07 M 147.47,76.70 L 147.62,77.97 L 147.89,80.60 L 148.00,82.00 L 148.39,86.04 L 148.70,88.49 L 148.87,89.51 L 149.20,91.38 L 149.37,92.02 L 149.69,93.09 L 149.83,93.23 L 150.52,93.60 L 151.19,93.74 L 151.61,93.76 L 153.51,93.71 L 154.68,93.48 L 158.28,92.99 L 160.74,92.86 L 161.59,92.91 L 164.07,92.65 L 165.71,92.15 L 165.35,92.32 L 162.48,93.37 L 161.04,93.84 L 158.12,94.48 L 153.77,94.92 L 153.07,94.93 L 151.93,94.93 L 151.40,94.92 L 150.55,94.79 L 150.16,94.69 L 149.55,94.32 L 149.27,94.09 L 148.86,93.35 L 148.68,92.93 L 148.41,91.73 L 148.29,91.06 L 148.12,89.28 L 148.05,88.31 L 147.92,85.84 L 147.74,81.24 L 147.69,79.97 L 147.52,77.57 L 147.43,76.41 L 147.40,76.20 M 170.73,89.44 L 170.58,89.54 L 171.03,89.24 M 179.81,80.64 L 179.14,81.74 L 177.40,83.85 L 176.48,84.88 L 174.33,86.81 L 173.21,87.75 L 172.01,88.57 L 172.86,87.89 L 174.79,86.30 L 175.68,85.43 L 177.40,83.67 L 178.16,82.75 L 179.57,80.91 L 180.13,79.99 L 181.12,78.16 L 181.42,77.28 L 181.03,78.41 M 54.61,72.21 L 54.56,72.66 L 54.47,74.06 L 54.43,74.84 L 54.35,76.81 L 54.31,77.86 L 54.25,80.31 L 54.22,81.58 L 54.16,84.42 L 54.14,85.87 L 54.11,88.30 L 54.11,88.25 L 54.11,86.67 L 54.12,83.61 L 54.13,82.24 L 54.16,79.60 L 54.18,78.47 L 54.22,76.34 L 54.24,75.50 L 54.29,73.96 L 54.32,73.44 L 54.39,72.58 L 54.43,72.43 L 54.64,71.96 M 142.39,63.30 L 144.94,63.56 L 146.13,63.70 L 148.08,63.99 L 148.98,64.14 L 150.26,64.46 L 151.36,64.96 L 151.49,65.09 L 151.77,65.62 L 151.92,65.92 L 152.20,66.72 L 152.90,69.63 L 153.00,70.21 L 153.32,71.23 L 153.50,71.71 L 153.99,72.51 L 154.26,72.88 L 154.95,73.48 L 155.29,73.73 L 154.78,73.54 L 154.22,72.99 L 153.70,72.41 L 153.53,72.07 L 153.25,71.35 L 153.20,70.93 L 152.80,69.75 L 152.30,68.88 L 151.94,68.43 L 150.26,66.62 L 149.14,65.82 L 146.17,64.23 L 145.01,63.84 L 144.34,63.68 L 142.94,63.39 L 142.13,63.28 L 141.97,63.26 M 63.02,69.33 L 62.12,69.45 L 60.56,69.67 L 59.83,69.78 L 58.59,70.00 L 58.00,70.11 L 57.05,70.33 L 56.61,70.44 L 55.93,70.67 L 54.96,71.28 L 55.04,71.10 L 55.42,70.77 L 55.72,70.63 L 56.40,70.36 L 56.88,70.24 L 57.96,70.00 L 58.68,69.89 L 60.26,69.65 L 61.27,69.53 L 63.46,69.27 L 64.26,69.18 M 139.60,69.91 L 141.08,70.05 L 142.50,70.18 L 143.10,70.25 L 144.24,70.39 L 144.69,70.46 L 145.50,70.60 L 145.76,70.67 L 146.20,70.80 L 146.27,70.87 L 146.27,70.88 L 145.84,70.74 L 145.57,70.67 L 144.74,70.52 L 144.29,70.44 L 143.14,70.29 L 142.53,70.22 L 141.11,70.07 L 139.62,69.93 L 135.98,69.68 L 129.92,69.38 L 135.98,69.67 M 49.15,69.12 L 49.38,68.52 L 49.60,68.19 M 100.29,67.91 L 104.65,67.92 L 106.47,67.94 L 108.21,67.97 L 108.96,67.99 L 110.38,68.03 L 110.94,68.06 L 111.97,68.11 L 112.32,68.14 L 112.90,68.21 L 112.90,68.21 L 112.33,68.14 L 111.98,68.11 L 110.96,68.06 L 110.39,68.03 L 108.98,67.99 L 108.23,67.97 L 106.49,67.95 L 104.68,67.92 L 100.34,67.91 L 98.08,67.91 L 93.94,67.93 L 98.03,67.91 M 52.12,65.40 L 52.22,65.33 L 52.24,65.32 M 67.71,62.81 L 62.78,63.18 L 60.02,63.45 L 58.87,63.59 L 56.72,63.91 L 55.84,64.09 L 54.21,64.49 L 53.55,64.73 L 52.83,65.04 L 53.34,64.81 L 53.94,64.56 L 55.41,64.16 L 56.19,63.98 L 58.08,63.67 L 59.09,63.52 L 61.48,63.27 L 65.72,62.93 L 67.55,62.81 L 68.43,62.76 M 104.98,61.94 L 109.59,61.97 L 118.50,62.13 L 120.67,62.19 L 124.85,62.32 L 126.90,62.39 L 130.77,62.55 L 132.67,62.64 L 136.17,62.84 L 136.60,62.87 L 136.06,62.85 L 133.46,62.80 L 131.96,62.79 L 128.81,62.79 L 127.00,62.81 L 126.25,62.80 L 125.33,62.79 L 124.68,62.78 L 123.26,62.75 L 122.39,62.73 L 120.54,62.70 L 119.48,62.68 L 117.26,62.63 L 116.03,62.61 L 113.51,62.56 L 112.16,62.53 L 106.52,62.41 L 103.49,62.34 L 93.86,62.23 L 87.15,62.24 L 83.90,62.28 L 80.70,62.33 L 79.17,62.36 L 76.18,62.44 L 74.80,62.48 L 72.12,62.57 L 70.93,62.63 L 69.34,62.71 L 71.48,62.59 L 73.49,62.49 L 77.71,62.32 L 81.99,62.17 L 91.09,62.00 L 95.68,61.93 Z" fill="rgba(236,126,20,1)"/>
<path d="M 150.38,135.64 L 149.16,136.58 L 150.56,135.39 M 62.55,133.42 L 63.38,133.47 L 65.27,133.55 L 66.27,133.59 L 68.51,133.65 L 72.30,133.73 L 76.48,133.79 L 85.09,134.05 L 87.10,134.12 L 90.58,134.28 L 91.39,134.32 L 92.78,134.40 L 94.50,134.51 L 94.98,134.55 L 95.60,134.58 L 91.22,134.61 L 86.99,134.57 L 82.81,134.52 L 80.83,134.48 L 76.95,134.38 L 75.13,134.31 L 71.60,134.16 L 69.98,134.07 L 66.85,133.87 L 65.45,133.76 L 62.78,133.51 L 61.64,133.37 L 61.38,133.34 M 128.68,133.56 L 119.21,134.04 L 117.86,134.09 L 120.00,133.98 L 122.54,133.83 L 127.48,133.54 L 129.88,133.40 L 134.17,133.15 L 135.18,133.10 L 135.92,133.05 M 151.93,117.21 L 152.29,117.28 L 152.92,117.62 L 153.52,118.02 L 154.29,119.48 L 154.59,120.30 L 154.72,122.46 L 154.11,126.25 L 153.86,127.13 L 153.39,128.69 L 153.16,129.44 L 152.73,130.74 L 152.31,131.98 L 152.09,132.50 L 152.57,130.84 L 152.73,129.68 L 152.95,127.28 L 152.91,125.98 L 152.92,122.23 L 152.96,121.10 L 153.00,120.63 L 153.08,119.77 L 153.13,119.50 L 153.20,118.53 L 153.07,118.07 L 152.91,117.91 L 152.51,117.66 L 152.20,117.59 L 151.49,117.50 L 151.00,117.50 L 149.60,117.63 L 149.02,117.96 L 149.13,117.78 L 149.64,117.47 L 150.74,117.18 L 151.17,117.12 M 54.11,86.67 L 54.11,88.25 L 54.11,91.65 L 54.19,102.76 L 54.22,105.44 L 54.29,110.15 L 54.32,112.40 L 54.40,116.28 L 54.44,118.13 L 54.54,121.25 L 54.59,122.73 L 54.71,125.16 L 54.78,126.30 L 54.92,128.11 L 54.99,128.95 L 55.17,130.20 L 55.26,130.77 L 55.46,131.53 L 55.74,132.08 L 55.59,132.02 L 55.38,131.81 L 54.93,131.14 L 54.68,130.48 L 54.58,129.99 L 54.38,128.92 L 54.31,128.17 L 54.17,126.54 L 54.12,125.46 L 54.03,123.13 L 54.00,121.66 L 53.95,118.49 L 53.94,116.55 L 53.93,114.54 L 53.93,113.44 L 53.93,111.17 L 53.93,109.93 L 53.93,107.38 L 53.94,105.99 L 53.95,103.14 L 53.95,101.60 L 54.04,90.37 L 54.09,86.95 L 54.11,85.38 L 54.12,85.27 M 148.45,126.12 L 148.36,127.47 L 148.28,128.04 L 148.08,129.10 L 147.93,129.54 L 147.61,130.34 L 147.39,130.66 L 146.90,131.25 L 146.59,131.47 L 145.92,131.88 L 145.51,132.03 L 145.44,132.04 L 145.66,131.88 L 145.89,131.21 L 146.00,129.69 L 146.00,128.91 L 146.28,127.88 L 146.37,127.68 L 146.59,127.47 L 146.97,127.48 L 147.25,127.66 L 147.75,127.29 L 147.98,127.01 L 148.34,125.87 L 148.47,125.35 M 148.85,118.37 L 148.68,119.04 L 148.68,119.00 L 148.73,118.60 L 148.98,118.03 L 149.00,118.00 M 152.73,102.39 L 153.08,102.52 L 153.70,103.06 L 153.98,103.38 L 154.42,104.31 L 154.80,106.14 L 154.88,107.04 L 154.91,108.23 L 154.89,108.74 L 154.56,109.31 L 154.32,109.54 L 153.38,109.73 L 151.05,109.82 L 150.07,109.83 L 148.78,109.79 L 148.23,109.75 L 147.65,109.49 L 147.43,109.32 L 147.37,108.70 L 147.39,108.33 L 147.66,107.19 L 147.85,106.44 L 148.38,105.19 L 148.66,104.61 L 149.34,103.70 L 149.69,103.29 L 150.45,102.73 L 150.83,102.49 L 151.61,102.29 L 152.00,102.23 M 150.66,105.35 L 150.17,105.80 L 150.06,106.13 L 149.93,106.85 L 150.03,107.23 L 150.34,108.01 L 150.69,108.35 L 151.26,108.76 L 151.57,108.80 L 152.20,108.77 L 152.49,108.63 L 153.03,108.26 L 153.21,107.97 L 153.50,107.33 L 153.50,106.93 L 152.99,105.84 L 152.23,105.28 L 151.75,105.19 M 54.51,72.24 L 54.57,71.69 L 54.60,71.60 L 54.98,71.23 M 67.99,68.78 L 69.50,68.62 L 67.99,68.78 Z" fill="rgba(231,129,29,1)"/>
<path d="M 22.17,61.67 L 23.23,62.18 L 23.73,62.48 L 24.49,63.36 L 25.00,64.93 L 25.00,65.19 L 25.27,65.89 L 25.45,66.27 L 26.01,67.13 L 28.45,69.82 L 29.21,70.49 L 30.99,71.57 L 31.91,72.07 L 33.92,72.82 L 34.94,73.15 L 37.05,73.56 L 38.11,73.73 L 40.19,73.81 L 41.21,73.81 L 43.13,73.55 L 44.06,73.38 L 45.70,72.79 L 46.47,72.45 L 47.68,71.53 L 48.90,69.77 L 49.00,69.51 L 49.00,69.54 L 48.77,70.43 L 48.41,71.10 L 48.14,71.46 L 46.88,72.90 L 46.07,73.58 L 44.36,74.86 L 43.50,75.29 L 41.84,76.00 L 41.18,76.00 L 37.92,75.60 L 35.33,74.97 L 33.89,74.48 L 30.95,73.42 L 29.42,72.75 L 26.34,71.33 L 24.83,70.51 L 23.51,69.05 L 23.00,67.62 L 23.00,66.82 L 22.67,64.71 L 22.19,63.62 L 21.89,63.43 L 20.74,63.28 L 20.15,63.74 L 19.97,64.18 L 19.69,65.17 L 19.70,65.78 L 19.83,67.06 L 20.09,67.73 L 20.40,68.97 L 20.53,69.99 L 20.55,70.55 L 20.56,72.90 L 20.39,73.95 L 20.18,76.11 L 20.29,77.27 L 20.51,77.82 L 21.07,78.94 L 21.57,79.60 L 22.73,81.02 L 23.58,81.96 L 27.04,85.10 L 29.83,87.14 L 31.27,88.02 L 34.13,89.64 L 35.38,90.16 L 36.58,90.64 L 37.10,90.78 L 38.09,91.00 L 38.47,91.00 L 39.55,91.31 L 40.00,91.77 L 40.00,92.06 L 40.31,92.61 L 40.77,92.64 L 41.06,92.46 L 41.76,92.28 L 42.37,92.29 L 42.73,92.35 L 44.27,92.72 L 45.05,93.05 L 46.58,93.77 L 47.13,94.18 L 47.63,94.59 L 47.79,94.79 L 48.05,95.19 L 48.06,95.37 L 48.08,95.97 L 48.10,96.70 L 48.12,97.23 L 48.15,98.38 L 48.18,99.08 L 48.22,100.59 L 48.25,101.45 L 48.36,105.21 L 48.42,107.42 L 48.56,112.02 L 48.63,114.49 L 48.91,121.56 L 49.14,125.79 L 49.27,127.52 L 49.40,129.18 L 49.47,129.88 L 49.60,131.21 L 49.67,131.74 L 49.81,132.68 L 49.87,133.00 L 50.01,133.51 L 50.07,133.58 L 50.74,134.16 L 51.45,134.63 L 51.90,134.90 L 53.89,136.00 L 54.99,136.50 L 57.82,138.02 L 58.48,138.48 L 58.68,138.67 L 59.00,139.02 L 59.00,139.14 L 59.07,139.21 L 59.22,139.24 L 59.58,139.30 L 59.86,139.33 L 61.24,139.44 L 62.29,139.48 L 64.61,139.56 L 66.08,139.59 L 69.20,139.64 L 71.01,139.66 L 74.79,139.69 L 76.88,139.69 L 81.17,139.70 L 83.46,139.69 L 89.26,139.66 L 88.83,139.67 L 85.23,139.69 L 83.49,139.70 L 80.30,139.72 L 78.76,139.72 L 75.96,139.73 L 74.60,139.73 L 72.15,139.73 L 70.97,139.72 L 68.85,139.70 L 67.82,139.70 L 66.00,139.67 L 65.12,139.65 L 63.57,139.61 L 62.08,139.56 L 59.79,139.43 L 58.74,139.36 L 57.18,139.16 L 56.47,139.05 L 55.42,138.79 L 54.93,138.65 L 54.16,138.30 L 53.40,137.93 L 52.12,137.20 L 51.52,136.82 L 50.54,135.98 L 50.08,135.53 L 49.35,134.43 L 49.02,133.83 L 48.50,132.30 L 48.27,131.47 L 47.92,129.38 L 47.77,128.24 L 47.55,125.42 L 47.45,123.90 L 47.31,120.20 L 47.28,119.21 L 47.22,117.04 L 47.15,113.49 L 46.79,95.37 L 42.14,94.09 L 40.87,93.74 L 37.88,92.89 L 37.16,92.68 L 35.83,92.29 L 34.16,91.80 L 33.51,91.60 L 32.01,90.84 L 31.23,90.41 L 29.57,89.26 L 27.90,88.03 L 24.51,84.86 L 23.70,84.05 L 22.19,82.36 L 21.47,81.52 L 20.23,79.88 L 19.66,79.07 L 18.78,77.56 L 18.00,75.57 L 17.75,74.43 L 17.63,71.68 L 17.63,70.28 L 17.96,67.48 L 18.16,66.14 L 18.82,63.92 L 19.01,63.44 L 19.42,62.68 L 20.09,61.94 L 20.55,61.66 L 21.63,61.62 M 128.07,139.05 L 126.82,139.10 L 124.09,139.18 L 122.69,139.22 L 119.66,139.29 L 118.11,139.32 L 114.77,139.38 L 113.06,139.41 L 109.38,139.47 L 107.49,139.49 L 103.46,139.54 L 99.19,139.58 L 107.95,139.47 L 112.74,139.39 L 117.48,139.30 L 119.73,139.25 L 124.13,139.15 L 126.16,139.09 L 130.08,138.97 L 130.27,138.97 M 148.57,136.83 L 147.04,137.28 L 146.20,137.50 L 144.08,137.87 L 143.67,137.93 L 146.37,137.38 L 147.60,137.07 L 148.08,136.94 L 148.93,136.68 M 63.50,67.32 L 64.33,67.39 L 64.59,67.49 L 65.00,67.74 L 65.00,67.95 L 65.49,68.27 L 66.27,68.43 L 66.84,68.48 L 68.08,68.55 L 68.82,68.55 L 70.39,68.53 L 71.25,68.48 L 72.01,68.44 L 71.07,68.50 L 69.50,68.62 L 67.99,68.78 L 65.41,69.06 L 64.19,69.20 L 62.14,69.44 L 61.18,69.56 L 59.60,69.79 L 58.87,69.90 L 57.70,70.12 L 57.16,70.22 L 56.34,70.44 L 55.97,70.55 L 55.43,70.78 L 54.60,71.60 L 54.57,71.69 L 54.49,72.45 L 54.46,72.92 L 54.39,74.38 L 54.36,75.19 L 54.29,77.26 L 54.26,78.37 L 54.20,80.97 L 54.17,82.33 L 54.11,85.38 L 54.09,86.95 L 54.04,90.37 L 53.95,101.60 L 53.95,103.14 L 53.94,105.99 L 53.93,107.38 L 53.93,109.93 L 53.93,111.17 L 53.93,113.44 L 53.93,114.54 L 53.94,116.55 L 53.95,118.49 L 54.00,121.66 L 54.03,123.13 L 54.12,125.46 L 54.17,126.54 L 54.31,128.17 L 54.38,128.92 L 54.58,129.99 L 54.68,130.48 L 54.93,131.14 L 55.38,131.81 L 55.59,132.02 L 56.52,132.40 L 57.07,132.58 L 58.64,132.92 L 59.50,133.08 L 61.64,133.37 L 62.78,133.51 L 65.45,133.76 L 66.85,133.87 L 69.98,134.07 L 71.60,134.16 L 75.13,134.31 L 76.95,134.38 L 80.83,134.48 L 82.81,134.52 L 86.99,134.57 L 91.22,134.61 L 100.32,134.54 L 104.94,134.48 L 114.45,134.21 L 119.21,134.04 L 128.68,133.56 L 142.31,132.60 L 142.97,132.55 L 144.09,132.38 L 144.62,132.29 L 145.51,132.03 L 145.92,131.88 L 146.59,131.47 L 146.90,131.25 L 147.39,130.66 L 147.61,130.34 L 147.93,129.54 L 148.08,129.10 L 148.20,128.45 L 148.19,128.57 L 148.08,129.30 L 147.83,130.67 L 147.68,131.18 L 147.36,132.06 L 147.19,132.27 L 146.30,132.90 L 145.37,133.31 L 144.78,133.50 L 142.17,134.20 L 140.73,134.37 L 135.90,134.99 L 134.28,135.21 L 133.55,135.32 L 132.17,135.53 L 131.63,135.61 L 129.82,135.82 L 128.85,135.84 L 128.47,135.78 L 127.77,135.61 L 127.51,135.46 L 127.05,135.12 L 126.90,134.87 L 126.22,134.10 L 126.02,134.30 L 126.02,134.75 L 125.71,135.00 L 125.20,135.16 L 124.81,135.23 L 123.94,135.37 L 123.38,135.43 L 122.16,135.55 L 121.43,135.61 L 119.90,135.71 L 119.02,135.75 L 117.20,135.83 L 116.19,135.87 L 111.88,135.98 L 109.39,136.01 L 104.21,136.04 L 101.37,136.03 L 95.53,135.98 L 92.43,135.93 L 86.13,135.80 L 82.89,135.70 L 76.36,135.48 L 73.07,135.34 L 68.62,135.13 L 66.09,135.00 L 65.03,134.92 L 63.03,134.78 L 62.19,134.69 L 60.62,134.53 L 59.97,134.43 L 58.75,134.22 L 58.24,134.10 L 57.28,133.85 L 56.88,133.70 L 55.41,133.04 L 54.74,132.59 L 53.00,131.24 L 52.26,130.31 L 52.05,129.63 L 51.85,128.90 L 51.78,128.44 L 51.66,127.46 L 51.61,126.85 L 51.53,125.54 L 51.50,124.74 L 51.44,123.03 L 51.41,122.00 L 51.12,110.47 L 51.02,103.55 L 51.00,100.46 L 51.01,94.54 L 51.05,91.94 L 51.17,86.99 L 51.27,84.86 L 51.50,80.84 L 51.66,79.18 L 52.01,76.07 L 52.22,74.84 L 52.69,72.61 L 52.96,71.82 L 53.55,70.43 L 53.88,70.05 L 54.85,69.34 L 55.78,68.89 L 56.34,68.68 L 58.80,67.91 L 60.08,67.67 L 61.35,67.46 L 61.93,67.40 L 63.05,67.31 M 148.64,119.23 L 148.58,119.80 L 148.60,119.36 L 148.66,119.13 M 148.84,118.42 L 148.83,118.45 L 148.85,118.37 L 149.00,118.00 M 149.00,117.99 L 149.01,117.97 L 149.60,117.63 L 151.00,117.50 L 149.59,117.64 M 77.70,110.18 L 76.03,111.82 L 75.20,112.61 L 73.69,113.96 L 72.97,114.58 L 71.79,115.44 L 70.61,116.00 L 71.78,115.44 L 72.95,114.58 L 73.67,113.96 L 75.19,112.62 L 76.01,111.83 L 77.69,110.19 L 78.29,109.57 M 72.60,86.56 L 73.09,86.93 L 74.37,88.07 L 75.05,88.70 L 76.57,90.24 L 77.34,91.04 L 78.93,92.78 L 79.72,93.66 L 81.21,95.42 L 81.71,96.03 L 81.61,95.94 L 80.88,95.47 L 79.38,94.63 L 78.63,94.44 L 76.88,94.20 L 76.22,94.41 L 76.13,94.72 L 76.12,95.50 L 76.34,96.14 L 76.95,97.60 L 77.47,98.61 L 78.18,100.14 L 78.42,100.95 L 78.43,101.30 L 78.37,101.98 L 78.23,102.33 L 77.88,103.05 L 77.60,103.47 L 76.48,104.76 L 75.84,105.14 L 75.68,105.00 L 75.18,105.08 L 74.61,105.39 L 74.23,105.66 L 73.44,106.26 L 72.98,106.65 L 72.04,107.47 L 71.80,107.71 L 72.50,106.90 L 73.12,106.24 L 74.25,104.95 L 74.79,104.32 L 75.68,103.19 L 76.09,102.66 L 76.64,101.83 L 77.00,101.04 L 77.00,100.76 L 76.57,99.95 L 76.30,99.50 L 75.40,98.45 L 74.90,97.90 L 73.64,96.72 L 71.44,94.94 L 70.91,94.54 L 69.66,93.40 L 68.11,91.73 L 67.81,91.35 L 67.45,90.74 L 67.31,90.45 L 67.28,89.93 L 67.31,89.66 L 67.63,89.08 L 68.52,87.98 L 69.01,87.44 L 70.13,86.58 L 71.49,86.00 L 71.72,86.00 M 85.00,101.09 L 85.00,101.34 L 84.97,101.40 L 84.97,101.19 L 84.77,100.54 M 70.18,88.42 L 69.84,88.76 L 69.28,89.83 L 69.32,90.58 L 69.55,90.96 L 70.12,91.71 L 70.59,92.05 L 71.65,92.72 L 72.35,93.01 L 73.50,93.47 L 73.92,93.64 L 74.61,93.92 L 74.66,93.94 L 74.62,93.40 L 74.44,92.57 L 74.30,92.03 L 73.47,90.13 L 72.72,89.14 L 72.29,88.82 L 71.42,88.33 L 71.00,88.30 M 132.27,66.25 L 133.16,66.32 L 135.06,66.49 L 136.11,66.62 L 138.25,66.90 L 139.33,67.07 L 141.49,67.42 L 142.50,67.62 L 144.45,68.01 L 145.27,68.21 L 146.79,68.61 L 147.32,68.80 L 148.19,69.17 L 148.30,69.33 L 148.58,70.51 L 148.71,71.93 L 148.75,72.87 L 148.80,74.90 L 148.79,76.07 L 148.75,78.48 L 148.70,79.75 L 148.54,83.80 L 148.52,85.99 L 148.57,86.86 L 148.72,88.46 L 148.89,89.06 L 149.29,90.15 L 149.60,90.53 L 150.32,91.19 L 150.82,91.39 L 151.93,91.72 L 152.66,91.79 L 154.23,91.87 L 155.21,91.84 L 157.32,91.76 L 158.60,91.69 L 162.96,91.24 L 165.65,90.75 L 166.88,90.41 L 169.27,89.66 L 170.36,89.19 L 172.46,88.18 L 172.63,88.08 L 171.88,88.66 L 169.87,90.01 L 168.87,90.64 L 166.89,91.64 L 165.91,92.08 L 164.07,92.65 L 161.59,92.91 L 160.74,92.86 L 158.28,92.99 L 154.68,93.48 L 153.51,93.71 L 151.61,93.76 L 151.19,93.74 L 150.52,93.60 L 149.83,93.23 L 149.69,93.09 L 149.37,92.02 L 149.20,91.38 L 148.87,89.51 L 148.70,88.49 L 148.39,86.04 L 148.00,82.00 L 147.89,80.60 L 147.62,77.97 L 147.47,76.70 L 147.16,74.52 L 147.00,73.51 L 146.69,72.03 L 146.27,70.87 L 146.20,70.80 L 145.76,70.67 L 145.50,70.60 L 144.69,70.46 L 144.24,70.39 L 143.10,70.25 L 142.50,70.18 L 141.08,70.05 L 139.60,69.91 L 135.98,69.67 L 129.92,69.38 L 127.80,69.31 L 123.81,69.12 L 121.89,69.03 L 118.59,68.82 L 117.82,68.77 L 116.48,68.67 L 115.84,68.62 L 114.80,68.52 L 114.32,68.47 L 113.62,68.38 L 113.00,68.25 L 112.90,68.21 L 112.32,68.14 L 111.97,68.11 L 110.94,68.06 L 110.38,68.03 L 108.96,67.99 L 108.21,67.97 L 106.47,67.94 L 104.65,67.92 L 100.29,67.91 L 98.03,67.91 L 93.15,67.94 L 90.69,67.96 L 85.77,68.03 L 83.36,68.07 L 78.89,68.18 L 77.82,68.21 L 76.97,68.24 L 77.83,68.21 L 79.08,68.17 L 81.67,68.08 L 83.10,68.04 L 86.04,67.95 L 87.62,67.90 L 90.82,67.81 L 92.49,67.76 L 99.34,67.58 L 102.82,67.50 L 112.75,67.22 L 115.78,67.12 L 117.17,67.07 L 119.88,66.97 L 121.09,66.92 L 123.40,66.82 L 124.38,66.77 L 126.22,66.67 L 126.94,66.62 L 128.25,66.53 L 128.67,66.49 L 129.36,66.41 L 129.45,66.38 L 130.83,66.22 M 181.42,77.28 L 181.12,78.16 L 180.97,78.43 L 181.06,78.26 L 181.46,77.11 L 181.90,75.61 M 161.41,74.35 L 161.19,74.36 L 161.91,74.26 M 119.48,62.68 L 120.54,62.70 L 122.39,62.73 L 123.26,62.75 L 124.68,62.78 L 125.33,62.79 L 126.25,62.80 L 127.00,62.81 L 128.81,62.79 L 131.96,62.79 L 133.46,62.80 L 136.06,62.85 L 137.29,62.89 L 139.40,63.01 L 140.41,63.08 L 142.13,63.28 L 142.94,63.39 L 144.34,63.68 L 145.01,63.84 L 146.17,64.23 L 149.14,65.82 L 150.26,66.62 L 151.94,68.43 L 152.30,68.88 L 152.80,69.75 L 153.20,70.93 L 153.25,71.35 L 153.53,72.07 L 153.70,72.41 L 154.22,72.99 L 154.78,73.54 L 156.31,74.11 L 155.41,73.95 L 154.68,73.58 L 154.02,73.17 L 153.79,72.93 L 153.40,72.41 L 153.32,72.11 L 152.93,71.41 L 152.47,70.83 L 152.15,70.51 L 150.65,69.13 L 149.70,68.40 L 147.70,66.95 L 146.67,66.32 L 144.63,65.14 L 143.74,64.78 L 142.27,64.39 L 140.80,64.14 L 139.85,64.02 L 137.82,63.79 L 136.61,63.68 L 134.07,63.47 L 132.64,63.37 L 129.68,63.18 L 128.06,63.09 L 124.75,62.92 L 122.98,62.84 L 118.09,62.65 M 167.32,73.16 L 167.16,73.20 L 167.47,73.10 M 170.83,71.79 L 170.55,71.91 L 171.29,71.50 M 176.73,65.55 L 174.89,68.46 L 173.48,70.01 L 172.90,70.44 L 174.23,69.13 L 176.26,66.29 L 177.01,65.01 M 181.36,66.21 L 182.25,67.72 L 182.61,68.49 L 182.88,70.18 L 182.89,70.43 L 182.88,70.19 L 182.60,68.49 L 182.22,67.71 L 181.32,66.16 M 51.99,65.54 L 51.45,66.05 L 49.72,68.02 L 49.57,68.24 L 49.68,68.03 L 49.95,67.52 L 50.61,66.65 L 50.97,66.24 L 51.86,65.57 L 52.34,65.25 L 52.69,65.10 M 67.71,62.81 L 67.71,62.81 L 68.66,62.74 L 68.66,62.74 M 68.27,114.87 L 68.29,114.96 L 68.29,114.96 Z" fill="rgba(243,125,12,1)"/>
<path d="M 59.00,139.14 L 59.00,139.02 L 58.68,138.67 L 58.48,138.48 L 57.82,138.02 L 54.99,136.50 L 53.89,136.00 L 51.90,134.90 L 51.45,134.63 L 50.74,134.16 L 50.07,133.58 L 50.01,133.51 L 49.87,133.00 L 49.81,132.68 L 49.67,131.74 L 49.60,131.21 L 49.47,129.88 L 49.40,129.18 L 49.27,127.52 L 49.14,125.79 L 48.91,121.56 L 48.63,114.49 L 48.56,112.02 L 48.42,107.42 L 48.36,105.21 L 48.25,101.45 L 48.22,100.59 L 48.18,99.08 L 48.15,98.38 L 48.12,97.23 L 48.10,96.70 L 48.08,95.97 L 48.06,95.37 L 48.05,95.19 L 47.79,94.79 L 47.63,94.59 L 47.13,94.18 L 46.58,93.77 L 45.05,93.05 L 44.27,92.72 L 42.73,92.35 L 42.37,92.29 L 41.76,92.28 L 41.06,92.46 L 40.77,92.64 L 40.31,92.61 L 40.00,92.06 L 40.00,91.77 L 39.55,91.31 L 38.47,91.00 L 38.09,91.00 L 37.10,90.78 L 36.58,90.64 L 35.38,90.16 L 34.13,89.64 L 31.27,88.02 L 29.83,87.14 L 27.04,85.10 L 23.58,81.96 L 22.73,81.02 L 21.57,79.60 L 21.07,78.94 L 20.51,77.82 L 20.29,77.27 L 20.18,76.11 L 20.39,73.95 L 20.56,72.90 L 20.55,70.55 L 20.53,69.99 L 20.40,68.97 L 20.09,67.73 L 19.83,67.06 L 19.70,65.78 L 19.69,65.17 L 19.97,64.18 L 20.15,63.74 L 20.74,63.28 L 21.89,63.43 L 22.19,63.62 L 22.67,64.71 L 23.00,66.82 L 23.00,67.62 L 23.51,69.05 L 24.83,70.51 L 26.34,71.33 L 29.42,72.75 L 30.95,73.42 L 33.89,74.48 L 35.33,74.97 L 37.92,75.60 L 41.18,76.00 L 41.84,76.00 L 43.50,75.29 L 44.36,74.86 L 46.07,73.58 L 46.88,72.90 L 48.14,71.46 L 48.41,71.10 L 48.77,70.43 L 49.00,69.54 L 49.00,69.37 L 49.19,68.89 L 49.32,68.64 L 49.72,68.02 L 51.45,66.05 L 51.99,65.54 L 53.17,64.80 L 53.84,64.46 L 55.77,63.98 L 56.34,63.86 L 57.72,63.66 L 58.46,63.57 L 60.27,63.38 L 61.23,63.29 L 63.55,63.11 L 67.69,62.81 L 69.01,62.72 L 71.97,62.57 L 73.50,62.50 L 76.82,62.39 L 80.21,62.29 L 87.77,62.21 L 91.63,62.18 L 99.68,62.23 L 103.72,62.28 L 111.70,62.45 L 115.63,62.55 L 122.98,62.84 L 124.75,62.92 L 128.06,63.09 L 129.68,63.18 L 132.64,63.37 L 134.07,63.47 L 136.61,63.68 L 137.82,63.79 L 139.85,64.02 L 140.80,64.14 L 142.27,64.39 L 143.74,64.78 L 144.63,65.14 L 146.67,66.32 L 147.70,66.95 L 149.70,68.40 L 150.65,69.13 L 152.15,70.51 L 152.47,70.83 L 152.93,71.41 L 153.32,72.11 L 153.40,72.41 L 153.79,72.93 L 154.02,73.17 L 154.68,73.58 L 155.41,73.95 L 157.53,74.34 L 158.68,74.47 L 161.41,74.35 L 165.85,73.55 L 167.32,73.16 L 169.71,72.27 L 170.83,71.79 L 172.64,70.64 L 173.48,70.01 L 174.89,68.46 L 176.73,65.55 L 178.26,62.60 L 180.63,65.36 L 181.32,66.16 L 182.22,67.71 L 182.60,68.49 L 182.88,70.19 L 182.94,71.08 L 182.61,73.20 L 181.46,77.11 L 181.06,78.26 L 180.05,80.34 L 179.52,81.35 L 178.24,83.16 L 177.57,84.03 L 176.03,85.57 L 175.22,86.31 L 173.40,87.58 L 172.46,88.18 L 170.36,89.19 L 169.27,89.66 L 166.88,90.41 L 165.65,90.75 L 162.96,91.24 L 158.60,91.69 L 157.32,91.76 L 155.21,91.84 L 154.23,91.87 L 152.66,91.79 L 151.93,91.72 L 150.82,91.39 L 150.32,91.19 L 149.60,90.53 L 149.29,90.15 L 148.89,89.06 L 148.72,88.46 L 148.57,86.86 L 148.52,85.99 L 148.54,83.80 L 148.70,79.75 L 148.75,78.48 L 148.79,76.07 L 148.80,74.90 L 148.75,72.87 L 148.71,71.93 L 148.58,70.51 L 148.30,69.33 L 148.19,69.17 L 147.32,68.80 L 146.79,68.61 L 145.27,68.21 L 144.45,68.01 L 142.50,67.62 L 141.49,67.42 L 139.33,67.07 L 138.25,66.90 L 136.11,66.62 L 135.06,66.49 L 133.16,66.32 L 132.27,66.25 L 130.83,66.22 L 129.45,66.38 L 129.36,66.41 L 128.67,66.49 L 128.25,66.53 L 126.94,66.62 L 126.22,66.67 L 124.38,66.77 L 123.40,66.82 L 121.09,66.92 L 119.88,66.97 L 117.17,67.07 L 115.78,67.12 L 112.75,67.22 L 102.82,67.50 L 99.34,67.58 L 92.49,67.76 L 90.82,67.81 L 87.62,67.90 L 86.04,67.95 L 83.10,68.04 L 81.67,68.08 L 79.08,68.17 L 77.83,68.21 L 75.67,68.29 L 74.66,68.32 L 73.02,68.39 L 71.25,68.48 L 70.39,68.53 L 68.82,68.55 L 68.08,68.55 L 66.84,68.48 L 66.27,68.43 L 65.49,68.27 L 65.00,67.95 L 65.00,67.74 L 64.59,67.49 L 64.33,67.39 L 63.50,67.32 L 63.05,67.31 L 61.93,67.40 L 61.35,67.46 L 60.08,67.67 L 58.80,67.91 L 56.34,68.68 L 55.78,68.89 L 54.85,69.34 L 53.88,70.05 L 53.55,70.43 L 52.96,71.82 L 52.69,72.61 L 52.22,74.84 L 52.01,76.07 L 51.66,79.18 L 51.50,80.84 L 51.27,84.86 L 51.17,86.99 L 51.05,91.94 L 51.01,94.54 L 51.00,100.46 L 51.02,103.55 L 51.12,110.47 L 51.41,122.00 L 51.44,123.03 L 51.50,124.74 L 51.53,125.54 L 51.61,126.85 L 51.66,127.46 L 51.78,128.44 L 51.85,128.90 L 52.05,129.63 L 52.26,130.31 L 53.00,131.24 L 54.74,132.59 L 55.41,133.04 L 56.88,133.70 L 57.28,133.85 L 58.24,134.10 L 58.75,134.22 L 59.97,134.43 L 60.62,134.53 L 62.19,134.69 L 63.03,134.78 L 65.03,134.92 L 66.09,135.00 L 68.62,135.13 L 73.07,135.34 L 76.36,135.48 L 82.89,135.70 L 86.13,135.80 L 92.43,135.93 L 95.53,135.98 L 101.37,136.03 L 104.21,136.04 L 109.39,136.01 L 111.88,135.98 L 116.19,135.87 L 117.20,135.83 L 119.02,135.75 L 119.90,135.71 L 121.43,135.61 L 122.16,135.55 L 123.38,135.43 L 123.94,135.37 L 124.81,135.23 L 125.20,135.16 L 125.71,135.00 L 126.02,134.75 L 126.02,134.30 L 126.22,134.10 L 126.90,134.87 L 127.05,135.12 L 127.51,135.46 L 127.77,135.61 L 128.47,135.78 L 128.85,135.84 L 129.82,135.82 L 131.63,135.61 L 132.17,135.53 L 133.55,135.32 L 134.28,135.21 L 135.90,134.99 L 140.73,134.37 L 142.17,134.20 L 144.78,133.50 L 145.37,133.31 L 146.30,132.90 L 147.19,132.27 L 147.36,132.06 L 147.68,131.18 L 147.83,130.67 L 148.08,129.30 L 148.19,128.57 L 148.35,126.87 L 148.46,124.14 L 148.46,123.34 L 148.48,122.02 L 148.49,121.40 L 148.53,120.40 L 148.56,119.94 L 148.64,119.23 L 148.69,118.90 L 148.84,118.42 L 149.00,117.99 L 149.59,117.64 L 151.00,117.50 L 151.49,117.50 L 152.20,117.59 L 152.51,117.66 L 152.91,117.91 L 153.07,118.07 L 153.20,118.53 L 153.13,119.50 L 153.08,119.77 L 153.00,120.63 L 152.96,121.10 L 152.92,122.23 L 152.91,125.98 L 152.95,127.28 L 152.73,129.68 L 152.57,130.84 L 151.98,132.84 L 151.65,133.78 L 150.77,135.22 L 149.16,136.58 L 148.93,136.68 L 148.08,136.94 L 147.60,137.07 L 146.37,137.38 L 142.00,138.28 L 141.57,138.36 L 139.94,138.50 L 139.01,138.58 L 136.48,138.71 L 135.11,138.78 L 131.81,138.91 L 130.08,138.97 L 126.16,139.09 L 124.13,139.15 L 119.73,139.25 L 117.48,139.30 L 112.74,139.39 L 107.95,139.47 L 97.94,139.60 L 92.97,139.65 L 83.46,139.69 L 81.17,139.70 L 76.88,139.69 L 74.79,139.69 L 71.01,139.66 L 69.20,139.64 L 66.08,139.59 L 64.61,139.56 L 62.29,139.48 L 61.24,139.44 L 59.86,139.33 L 59.58,139.30 L 59.22,139.24 L 59.07,139.21 M 102.17,114.79 L 102.25,114.25 L 102.54,113.52 L 102.74,113.20 L 103.61,112.83 L 103.89,112.76 L 104.62,112.65 L 105.02,112.61 L 106.05,112.55 L 106.60,112.53 L 107.98,112.51 L 110.50,112.50 L 111.42,112.50 L 112.95,112.51 L 113.67,112.52 L 114.84,112.55 L 115.39,112.58 L 116.25,112.65 L 116.65,112.69 L 117.25,112.81 L 117.79,112.95 L 118.28,113.41 L 118.50,114.50 L 118.50,114.95 L 118.26,115.59 L 118.07,115.87 L 117.17,116.23 L 116.89,116.31 L 116.13,116.43 L 115.72,116.49 L 114.67,116.58 L 114.10,116.62 L 112.70,116.69 L 110.17,116.79 L 109.15,116.83 L 107.47,116.88 L 106.68,116.90 L 105.43,116.92 L 104.85,116.92 L 103.97,116.88 L 103.56,116.85 L 102.99,116.74 L 102.48,116.62 L 102.14,116.09 L 102.04,115.78 M 68.67,115.33 L 68.29,114.96 L 68.01,114.00 L 67.95,113.50 L 68.29,112.30 L 68.53,111.67 L 69.48,110.26 L 71.56,107.95 L 72.04,107.47 L 72.98,106.65 L 73.44,106.26 L 74.23,105.66 L 74.61,105.39 L 75.18,105.08 L 75.68,105.00 L 75.84,105.14 L 76.48,104.76 L 77.60,103.47 L 77.88,103.05 L 78.23,102.33 L 78.37,101.98 L 78.43,101.30 L 78.42,100.95 L 78.18,100.14 L 77.47,98.61 L 76.95,97.60 L 76.34,96.14 L 76.12,95.50 L 76.13,94.72 L 76.22,94.41 L 76.88,94.20 L 78.63,94.44 L 79.38,94.63 L 80.88,95.47 L 81.61,95.94 L 82.91,97.16 L 83.51,97.80 L 84.38,99.19 L 84.97,101.19 L 84.97,101.44 L 84.44,102.39 L 84.10,102.93 L 83.01,104.33 L 82.41,105.07 L 80.95,106.73 L 80.19,107.58 L 78.53,109.33 L 77.69,110.19 L 76.01,111.83 L 75.19,112.62 L 73.67,113.96 L 72.95,114.58 L 71.78,115.44 L 70.61,116.00 L 70.26,116.00 L 69.51,115.80 L 69.16,115.68 M 150.69,108.35 L 150.34,108.01 L 150.03,107.23 L 149.93,106.85 L 150.06,106.13 L 150.17,105.80 L 150.66,105.35 L 151.75,105.19 L 152.23,105.28 L 152.99,105.84 L 153.50,106.93 L 153.50,107.33 L 153.21,107.97 L 153.03,108.26 L 152.49,108.63 L 152.20,108.77 L 151.57,108.80 L 151.26,108.76 M 72.35,93.01 L 71.65,92.72 L 70.59,92.05 L 70.12,91.71 L 69.55,90.96 L 69.32,90.58 L 69.28,89.83 L 69.84,88.76 L 70.18,88.42 L 71.00,88.30 L 71.42,88.33 L 72.29,88.82 L 72.72,89.14 L 73.47,90.13 L 74.30,92.03 L 74.44,92.57 L 74.62,93.40 L 74.66,93.94 L 74.61,93.92 L 73.92,93.64 L 73.50,93.47 Z" fill="rgba(249,122,4,1)"/>
</g>
</svg>